<?xml version="1.0" encoding="UTF-8" standalone="no"?>
<!DOCTYPE svg PUBLIC "-//W3C//DTD SVG 1.1//EN" "http://www.w3.org/Graphics/SVG/1.1/DTD/svg11.dtd">
<svg version="1.1" xmlns="http://www.w3.org/2000/svg" xmlns:xlink="http://www.w3.org/1999/xlink" preserveAspectRatio="xMidYMid meet" viewBox="0 0 350 350" width="350" height="350"><defs><path d="M344 174.4C344 268.23 267.82 344.4 174 344.4C80.17 344.4 4 268.23 4 174.4C4 80.57 80.17 4.4 174 4.4C267.82 4.4 344 80.57 344 174.4Z" id="epRWY83v"></path><path d="M245.46 254.67C245.46 283.01 222.48 306 194.13 306C190.1 306 157.9 306 153.87 306C125.52 306 102.54 283.01 102.54 254.67C102.54 254.3 102.54 251.4 102.54 251.04C102.54 222.69 125.52 199.7 153.87 199.7C157.9 199.7 190.1 199.7 194.13 199.7C222.48 199.7 245.46 222.69 245.46 251.04C245.46 251.28 245.46 252.49 245.46 254.67" id="b1qbRQeWfA"></path><path d="M194.13 199.7L174 199.7L174 306C186.08 306 192.78 306 194.13 306C222.48 306 245.46 283.01 245.46 254.67C245.46 254.3 245.46 251.4 245.46 251.04C245.46 222.69 222.48 199.7 194.13 199.7" id="d6zlh22KUL"></path><path d="M197.84 210.29C197.85 226.21 174.02 242.01 174.02 242.01C174.02 242.01 150.17 226.24 150.16 210.32C150.15 194.41 160.39 190.19 173.98 190.18C187.56 190.17 197.83 194.37 197.84 210.29" id="b2hIr8uzOt"></path><path d="M194.32 206.05C194.32 217.27 185.22 226.37 174 226.37C174 226.37 174 226.37 174 226.37C162.78 226.37 153.68 217.27 153.68 206.05C153.68 202.87 153.68 177.49 153.68 174.32C153.68 163.1 162.78 154 174 154C174 154 174 154 174 154C185.22 154 194.32 163.1 194.32 174.32C194.32 176.44 194.32 187.01 194.32 206.05" id="p22EfZnjT4"></path><path d="M174 154C162.78 154 153.68 163.1 153.68 174.32C153.68 176.04 153.68 189.81 153.68 191.54C159.53 193.6 166.51 194.8 174 194.8C181.49 194.8 188.46 193.6 194.32 191.54C194.32 189.81 194.32 176.04 194.32 174.32C194.32 163.1 185.22 154 174 154" id="d2S2Q9MRQ8"></path><path d="M245.46 127.72C245.46 127.72 240.2 154.8 221.94 162.1C220.26 156.01 234.98 89.29 244.62 94.26C245.07 98.05 246.36 124.58 245.46 127.72" id="b1892UwBfc"></path><path d="M243.09 113.85C243.09 155.52 209.31 189.3 167.63 189.3C125.96 189.3 92.18 155.52 92.18 113.85C92.18 72.17 125.96 38.39 167.63 38.39C209.31 38.39 243.09 72.17 243.09 113.85" id="a5nzS8jiv8"></path><path d="M264.29 113.85C264.29 122.57 257.22 129.64 248.5 129.64C239.78 129.64 232.71 122.57 232.71 113.85C232.71 105.12 239.78 98.05 248.5 98.05C257.22 98.05 264.29 105.12 264.29 113.85" id="a7c6AEle3f"></path><path d="M201.39 131.38C201.39 151.97 184.7 168.66 164.11 168.66C143.53 168.66 126.84 151.97 126.84 131.38C131.81 131.38 156.66 131.38 201.39 131.38" id="c1EHuawMMw"></path><path d="M127.44 105.58C122.77 105.58 118.98 109.36 118.98 114.03C118.98 118.7 122.77 122.49 127.44 122.49C132.11 122.49 135.89 118.7 135.89 114.03C135.89 109.36 132.11 105.58 127.44 105.58" id="bZPBK7VeC"></path><path d="M196.41 105.58C191.74 105.58 187.96 109.36 187.96 114.03C187.96 118.7 191.74 122.49 196.41 122.49C201.08 122.49 204.86 118.7 204.86 114.03C204.86 109.36 201.08 105.58 196.41 105.58" id="bFfuOGuRr"></path><path d="M209.62 68.09C209.62 68.09 234.52 101.1 245.22 99.21C241.94 56.09 215.24 30.38 167.62 30.38C128.5 30.38 98.34 59.98 92.18 97.35C102.02 97.28 166.42 101.81 209.62 68.09" id="h5xRCUGMKx"></path><path d="M211.07 60.67C211.07 60.67 211.31 61.04 211.51 61.85C211.7 62.65 211.83 63.91 211.52 65.47C211.22 67.02 210.53 68.85 209.36 70.71C208.2 72.58 206.62 74.5 204.69 76.35C202.77 78.22 200.53 80.05 198.03 81.76C195.53 83.48 192.82 85.17 189.91 86.7C189.52 86.9 189.24 87.07 188.76 87.3C188.65 87.36 187.77 87.79 187.66 87.84C186.93 88.2 186.2 88.57 185.37 88.91C183.75 89.64 182.12 90.25 180.47 90.82C177.16 91.92 173.75 92.86 170.33 93.59C166.9 94.33 163.46 94.93 160.07 95.39C156.68 95.89 153.33 96.19 150.1 96.49C146.87 96.81 143.73 96.96 140.77 97.12C137.8 97.26 135 97.35 132.41 97.36C129.82 97.42 127.45 97.41 125.34 97.37C123.24 97.37 121.4 97.3 119.89 97.24C116.87 97.13 115.14 97.01 115.14 97.01C115.14 97.01 116.84 96.67 119.82 96.18C122.8 95.69 127.06 95.03 132.17 94.31C137.25 93.58 143.19 92.73 149.55 91.83C152.72 91.38 155.97 90.81 159.28 90.28C162.57 89.71 165.91 89.12 169.2 88.39C172.5 87.7 175.73 86.84 178.88 85.92C180.43 85.4 181.98 84.92 183.42 84.37C184.14 84.13 184.91 83.8 185.66 83.48C185.78 83.43 186.68 83.05 186.79 83C187.05 82.89 187.48 82.68 187.82 82.53C190.67 81.17 193.42 79.85 195.92 78.42C198.42 76.98 200.73 75.55 202.72 74.05C204.69 72.54 206.42 71.04 207.73 69.52C209.03 68 209.98 66.51 210.52 65.17C211.04 63.83 211.23 62.68 211.21 61.89C211.2 61.09 211.07 60.67 211.07 60.67" id="a1YT9gpJWv"></path><path d="M163.28 223.3L174.02 242.01L151.24 228.2L163.28 223.3Z" id="csVFk9pRd"></path><path d="M153.68 193.27L140.35 201.51L147.01 244.4L163.28 223.3L153.68 193.27" id="d48RfJ4ult"></path><path d="M184.75 223.3L174 242.01L196.79 228.2L184.75 223.3Z" id="bBEBfPDKK"></path><path d="M194.35 193.27L207.67 201.51L201.01 244.4L184.75 223.3L194.35 193.27" id="a1lLnmf2L3"></path></defs><g><g><g><use xlink:href="#epRWY83v" opacity="1" fill="#2c3e50" fill-opacity="1"></use></g><g><use xlink:href="#b1qbRQeWfA" opacity="1" fill="#41a0cd" fill-opacity="1"></use><g><use xlink:href="#b1qbRQeWfA" opacity="1" fill-opacity="0" stroke="#000000" stroke-width="1" stroke-opacity="0"></use></g></g><g><use xlink:href="#d6zlh22KUL" opacity="1" fill="#3e96bf" fill-opacity="1"></use><g><use xlink:href="#d6zlh22KUL" opacity="1" fill-opacity="0" stroke="#000000" stroke-width="1" stroke-opacity="0"></use></g></g><g><use xlink:href="#b2hIr8uzOt" opacity="1" fill="#e49b74" fill-opacity="1"></use><g><use xlink:href="#b2hIr8uzOt" opacity="1" fill-opacity="0" stroke="#000000" stroke-width="1" stroke-opacity="0"></use></g></g><g><use xlink:href="#p22EfZnjT4" opacity="1" fill="#f8a57c" fill-opacity="1"></use><g><use xlink:href="#p22EfZnjT4" opacity="1" fill-opacity="0" stroke="#000000" stroke-width="1" stroke-opacity="0"></use></g></g><g><use xlink:href="#d2S2Q9MRQ8" opacity="1" fill="#e49b74" fill-opacity="1"></use><g><use xlink:href="#d2S2Q9MRQ8" opacity="1" fill-opacity="0" stroke="#000000" stroke-width="1" stroke-opacity="0"></use></g></g><g><use xlink:href="#b1892UwBfc" opacity="1" fill="#532518" fill-opacity="1"></use><g><use xlink:href="#b1892UwBfc" opacity="1" fill-opacity="0" stroke="#000000" stroke-width="1" stroke-opacity="0"></use></g></g><g><use xlink:href="#a5nzS8jiv8" opacity="1" fill="#f8a57c" fill-opacity="1"></use><g><use xlink:href="#a5nzS8jiv8" opacity="1" fill-opacity="0" stroke="#000000" stroke-width="1" stroke-opacity="0"></use></g></g><g><use xlink:href="#a7c6AEle3f" opacity="1" fill="#f8a57c" fill-opacity="1"></use><g><use xlink:href="#a7c6AEle3f" opacity="1" fill-opacity="0" stroke="#000000" stroke-width="1" stroke-opacity="0"></use></g></g><g><use xlink:href="#c1EHuawMMw" opacity="1" fill="#ffffff" fill-opacity="1"></use><g><use xlink:href="#c1EHuawMMw" opacity="1" fill-opacity="0" stroke="#000000" stroke-width="1" stroke-opacity="0"></use></g></g><g><use xlink:href="#bZPBK7VeC" opacity="1" fill="#1d1e1f" fill-opacity="1"></use><g><use xlink:href="#bZPBK7VeC" opacity="1" fill-opacity="0" stroke="#000000" stroke-width="1" stroke-opacity="0"></use></g></g><g><use xlink:href="#bFfuOGuRr" opacity="1" fill="#1d1e1f" fill-opacity="1"></use><g><use xlink:href="#bFfuOGuRr" opacity="1" fill-opacity="0" stroke="#000000" stroke-width="1" stroke-opacity="0"></use></g></g><g><use xlink:href="#h5xRCUGMKx" opacity="1" fill="#532518" fill-opacity="1"></use><g><use xlink:href="#h5xRCUGMKx" opacity="1" fill-opacity="0" stroke="#000000" stroke-width="1" stroke-opacity="0"></use></g></g><g><use xlink:href="#a1YT9gpJWv" opacity="1" fill="#532518" fill-opacity="1"></use><g><use xlink:href="#a1YT9gpJWv" opacity="1" fill-opacity="0" stroke="#000000" stroke-width="1" stroke-opacity="0"></use></g></g><g><use xlink:href="#csVFk9pRd" opacity="1" fill="#255b78" fill-opacity="1"></use><g><use xlink:href="#csVFk9pRd" opacity="1" fill-opacity="0" stroke="#000000" stroke-width="1" stroke-opacity="0"></use></g></g><g><use xlink:href="#d48RfJ4ult" opacity="1" fill="#3885ad" fill-opacity="1"></use><g><use xlink:href="#d48RfJ4ult" opacity="1" fill-opacity="0" stroke="#000000" stroke-width="1" stroke-opacity="0"></use></g></g><g><use xlink:href="#bBEBfPDKK" opacity="1" fill="#21536d" fill-opacity="1"></use><g><use xlink:href="#bBEBfPDKK" opacity="1" fill-opacity="0" stroke="#000000" stroke-width="1" stroke-opacity="0"></use></g></g><g><use xlink:href="#a1lLnmf2L3" opacity="1" fill="#357fa5" fill-opacity="1"></use><g><use xlink:href="#a1lLnmf2L3" opacity="1" fill-opacity="0" stroke="#000000" stroke-width="1" stroke-opacity="0"></use></g></g></g></g></svg>