<?xml version="1.0" encoding="UTF-8" standalone="no"?>
<!DOCTYPE svg PUBLIC "-//W3C//DTD SVG 1.1//EN" "http://www.w3.org/Graphics/SVG/1.1/DTD/svg11.dtd">
<svg version="1.1" xmlns="http://www.w3.org/2000/svg" xmlns:xlink="http://www.w3.org/1999/xlink" preserveAspectRatio="xMidYMid meet" viewBox="0 0 350 350" width="350" height="350"><defs><path d="M344 174.4C344 268.23 267.82 344.4 174 344.4C80.17 344.4 4 268.23 4 174.4C4 80.57 80.17 4.4 174 4.4C267.82 4.4 344 80.57 344 174.4Z" id="epRWY83v"></path><path d="M247.02 255.62C247.02 283.97 224.04 306.95 195.69 306.95C191.67 306.95 159.46 306.95 155.44 306.95C127.09 306.95 104.11 283.97 104.11 255.62C104.11 255.26 104.11 252.35 104.11 251.99C104.11 223.64 127.09 200.66 155.44 200.66C159.46 200.66 191.67 200.66 195.69 200.66C224.04 200.66 247.02 223.64 247.02 251.99C247.02 252.23 247.02 253.44 247.02 255.62" id="a5IUbrdwH"></path><path d="M247.02 255.62C247.02 283.97 224.04 306.95 195.69 306.95C191.67 306.95 159.46 306.95 155.44 306.95C127.09 306.95 104.11 283.97 104.11 255.62C104.11 255.26 104.11 252.35 104.11 251.99C104.11 223.64 127.09 200.66 155.44 200.66C159.46 200.66 191.67 200.66 195.69 200.66C224.04 200.66 247.02 223.64 247.02 251.99C247.02 252.23 247.02 253.44 247.02 255.62" id="eO2Sq83zh"></path><path d="M195.69 200.66L175.59 200.66L175.59 306.95C187.65 306.95 194.35 306.95 195.69 306.95C224.04 306.95 247.02 283.97 247.02 255.62C247.02 255.26 247.02 252.35 247.02 251.99C247.02 223.64 224.04 200.66 195.69 200.66" id="d1Wru9yPN5"></path><path d="M199.4 211.24C199.41 227.16 175.59 289.1 175.59 289.1C175.59 289.1 151.74 227.2 151.73 211.28C151.71 195.36 161.96 191.15 175.54 191.14C189.13 191.13 199.39 195.33 199.4 211.24" id="b3MSRSGw27"></path><path d="M175.56 191.14C175.56 249.88 175.56 282.51 175.56 289.03C175.58 289.08 175.59 289.1 175.59 289.1C175.59 289.1 199.41 227.16 199.4 211.24C199.39 195.34 189.14 191.14 175.56 191.14" id="af9WBrwxB"></path><path d="M195.19 206.67C195.2 222.58 175.59 225.04 175.59 225.04C175.59 225.04 155.95 222.61 155.94 206.69C155.93 190.78 161.96 191.15 175.54 191.14C189.13 191.13 195.18 190.75 195.19 206.67" id="a23yQRKyUq"></path><path d="M195.89 201.92C195.89 213.14 186.79 222.24 175.56 222.24C175.56 222.24 175.56 222.24 175.56 222.24C164.34 222.24 155.24 213.14 155.24 201.92C155.24 199.26 155.24 177.94 155.24 175.28C155.24 164.05 164.34 154.95 175.56 154.95C175.56 154.95 175.56 154.95 175.56 154.95C186.79 154.95 195.89 164.05 195.89 175.28C195.89 177.05 195.89 185.93 195.89 201.92" id="b1sKoWp1IH"></path><path d="M175.58 158.66C164.35 158.66 155.25 167.76 155.25 178.98C155.25 180.7 155.25 194.48 155.25 196.2C161.11 198.26 168.08 199.47 175.58 199.47C183.07 199.47 190.04 198.26 195.9 196.2C195.9 194.48 195.9 180.7 195.9 178.98C195.9 167.76 186.8 158.66 175.58 158.66" id="a68oBTpQ0"></path><path d="M162.53 250.59L156.01 251.66L142.44 260.37L175.59 289.1L162.53 250.59" id="aDQRTfbBD"></path><path d="M171.16 276.04L135.56 236.66L148.53 209.3L171.16 276.04Z" id="a1rs49V3GA"></path><path d="M188.62 250.59L195.14 251.66L208.72 260.37L175.56 289.1L188.62 250.59" id="a5yOhPlF3g"></path><path d="M179.99 276.04L215.59 236.66L202.63 209.3L179.99 276.04Z" id="c5nyI3Qdaf"></path><path d="M169.7 216.3L175.59 225.04L153.33 219.79L169.7 216.3Z" id="aopFi75Bu"></path><path d="M155.24 194.22L141.91 202.46L148.58 225.84L169.7 216.3L155.24 194.22" id="cShU725w"></path><path d="M181.46 216.3L175.57 225.04L197.82 219.79L181.46 216.3Z" id="a9iDxH3r3J"></path><path d="M195.91 194.22L209.24 202.46L202.58 225.84L181.46 216.3L195.91 194.22" id="i1NDvF8vi"></path><path d="M258.87 118.51C258.87 127.23 251.8 134.3 243.08 134.3C234.36 134.3 227.29 127.23 227.29 118.51C227.29 109.79 234.36 102.71 243.08 102.71C251.8 102.71 258.87 109.79 258.87 118.51" id="d1gLH3nsHJ"></path><path d="M90.62 98.18C87.77 110.86 90.73 122.33 97.24 123.79C103.74 125.25 111.32 116.15 114.17 103.47C117.02 90.78 114.06 79.32 107.56 77.86C101.05 76.39 93.47 85.49 90.62 98.18" id="aWqgIOy8"></path><path d="M244.66 118.51C244.66 160.18 210.88 193.96 169.21 193.96C127.53 193.96 93.75 160.18 93.75 118.51C93.75 76.83 127.53 43.05 169.21 43.05C210.88 43.05 244.66 76.83 244.66 118.51" id="b29TDmYAbp"></path><path d="M248.9 98.79C251.09 111.61 247.53 122.9 240.96 124.02C234.39 125.14 227.29 115.66 225.11 102.85C222.92 90.04 226.48 78.74 233.05 77.62C239.62 76.5 246.72 85.98 248.9 98.79" id="bPqCteYmm"></path><path d="M191.34 135.38C191.34 149.55 179.85 161.03 165.69 161.03C151.52 161.03 140.04 149.55 140.04 135.38" id="g4q9QgDf6j"></path><path d="M129.01 99.63C124.35 99.63 120.56 103.41 120.56 108.08C120.56 112.75 124.35 116.53 129.01 116.53C133.68 116.53 137.47 112.75 137.47 108.08C137.47 103.41 133.68 99.63 129.01 99.63" id="a1swqA8QeT"></path><path d="M197.99 99.63C193.32 99.63 189.53 103.41 189.53 108.08C189.53 112.75 193.32 116.53 197.99 116.53C202.65 116.53 206.44 112.75 206.44 108.08C206.44 103.41 202.65 99.63 197.99 99.63" id="af0ngravQ"></path></defs><g><g><g><use xlink:href="#epRWY83v" opacity="1" fill="#2c3e50" fill-opacity="1"></use></g><g><use xlink:href="#a5IUbrdwH" opacity="1" fill="#484a4d" fill-opacity="1"></use><g><use xlink:href="#a5IUbrdwH" opacity="1" fill-opacity="0" stroke="#000000" stroke-width="1" stroke-opacity="0"></use></g></g><g><use xlink:href="#eO2Sq83zh" opacity="1" fill="#8b6530" fill-opacity="1"></use><g><use xlink:href="#eO2Sq83zh" opacity="1" fill-opacity="0" stroke="#000000" stroke-width="1" stroke-opacity="0"></use></g></g><g><use xlink:href="#d1Wru9yPN5" opacity="1" fill="#8b6530" fill-opacity="1"></use><g><use xlink:href="#d1Wru9yPN5" opacity="1" fill-opacity="0" stroke="#000000" stroke-width="1" stroke-opacity="0"></use></g></g><g><use xlink:href="#b3MSRSGw27" opacity="1" fill="#f5f5f3" fill-opacity="1"></use><g><use xlink:href="#b3MSRSGw27" opacity="1" fill-opacity="0" stroke="#000000" stroke-width="1" stroke-opacity="0"></use></g></g><g><use xlink:href="#af9WBrwxB" opacity="1" fill="#d1d3d0" fill-opacity="1"></use><g><use xlink:href="#af9WBrwxB" opacity="1" fill-opacity="0" stroke="#000000" stroke-width="1" stroke-opacity="0"></use></g></g><g><use xlink:href="#a23yQRKyUq" opacity="1" fill="#e49b74" fill-opacity="1"></use><g><use xlink:href="#a23yQRKyUq" opacity="1" fill-opacity="0" stroke="#000000" stroke-width="1" stroke-opacity="0"></use></g></g><g><use xlink:href="#b1sKoWp1IH" opacity="1" fill="#f8a57c" fill-opacity="1"></use><g><use xlink:href="#b1sKoWp1IH" opacity="1" fill-opacity="0" stroke="#000000" stroke-width="1" stroke-opacity="0"></use></g></g><g><use xlink:href="#a68oBTpQ0" opacity="1" fill="#e49b74" fill-opacity="1"></use><g><use xlink:href="#a68oBTpQ0" opacity="1" fill-opacity="0" stroke="#000000" stroke-width="1" stroke-opacity="0"></use></g></g><g><use xlink:href="#aDQRTfbBD" opacity="1" fill="#0d222c" fill-opacity="1"></use><g><use xlink:href="#aDQRTfbBD" opacity="1" fill-opacity="0" stroke="#000000" stroke-width="1" stroke-opacity="0"></use></g></g><g><use xlink:href="#a1rs49V3GA" opacity="1" fill="#09161c" fill-opacity="1"></use><g><use xlink:href="#a1rs49V3GA" opacity="1" fill-opacity="0" stroke="#000000" stroke-width="1" stroke-opacity="0"></use></g></g><g><use xlink:href="#a5yOhPlF3g" opacity="1" fill="#0d222c" fill-opacity="1"></use><g><use xlink:href="#a5yOhPlF3g" opacity="1" fill-opacity="0" stroke="#000000" stroke-width="1" stroke-opacity="0"></use></g></g><g><use xlink:href="#c5nyI3Qdaf" opacity="1" fill="#09161c" fill-opacity="1"></use><g><use xlink:href="#c5nyI3Qdaf" opacity="1" fill-opacity="0" stroke="#000000" stroke-width="1" stroke-opacity="0"></use></g></g><g><use xlink:href="#aopFi75Bu" opacity="1" fill="#c2c3c1" fill-opacity="1"></use><g><use xlink:href="#aopFi75Bu" opacity="1" fill-opacity="0" stroke="#000000" stroke-width="1" stroke-opacity="0"></use></g></g><g><use xlink:href="#cShU725w" opacity="1" fill="#f5f5f3" fill-opacity="1"></use><g><use xlink:href="#cShU725w" opacity="1" fill-opacity="0" stroke="#000000" stroke-width="1" stroke-opacity="0"></use></g></g><g><use xlink:href="#a9iDxH3r3J" opacity="1" fill="#999c9c" fill-opacity="1"></use><g><use xlink:href="#a9iDxH3r3J" opacity="1" fill-opacity="0" stroke="#000000" stroke-width="1" stroke-opacity="0"></use></g></g><g><use xlink:href="#i1NDvF8vi" opacity="1" fill="#f5f5f3" fill-opacity="1"></use><g><use xlink:href="#i1NDvF8vi" opacity="1" fill-opacity="0" stroke="#000000" stroke-width="1" stroke-opacity="0"></use></g></g><g><use xlink:href="#d1gLH3nsHJ" opacity="1" fill="#f8a57c" fill-opacity="1"></use><g><use xlink:href="#d1gLH3nsHJ" opacity="1" fill-opacity="0" stroke="#000000" stroke-width="1" stroke-opacity="0"></use></g></g><g><use xlink:href="#aWqgIOy8" opacity="1" fill="#532518" fill-opacity="1"></use><g><use xlink:href="#aWqgIOy8" opacity="1" fill-opacity="0" stroke="#000000" stroke-width="1" stroke-opacity="0"></use></g></g><g><use xlink:href="#b29TDmYAbp" opacity="1" fill="#f8a57c" fill-opacity="1"></use><g><use xlink:href="#b29TDmYAbp" opacity="1" fill-opacity="0" stroke="#000000" stroke-width="1" stroke-opacity="0"></use></g></g><g><use xlink:href="#bPqCteYmm" opacity="1" fill="#532518" fill-opacity="1"></use><g><use xlink:href="#bPqCteYmm" opacity="1" fill-opacity="0" stroke="#000000" stroke-width="1" stroke-opacity="0"></use></g></g><g><use xlink:href="#g4q9QgDf6j" opacity="1" fill="#000000" fill-opacity="0"></use><g><use xlink:href="#g4q9QgDf6j" opacity="1" fill-opacity="0" stroke="#1d1e1f" stroke-width="3" stroke-opacity="1"></use></g></g><g><use xlink:href="#a1swqA8QeT" opacity="1" fill="#1d1e1f" fill-opacity="1"></use><g><use xlink:href="#a1swqA8QeT" opacity="1" fill-opacity="0" stroke="#000000" stroke-width="1" stroke-opacity="0"></use></g></g><g><use xlink:href="#af0ngravQ" opacity="1" fill="#1d1e1f" fill-opacity="1"></use><g><use xlink:href="#af0ngravQ" opacity="1" fill-opacity="0" stroke="#000000" stroke-width="1" stroke-opacity="0"></use></g></g></g></g></svg>