<?xml version="1.0" encoding="UTF-8" standalone="no"?>
<!DOCTYPE svg PUBLIC "-//W3C//DTD SVG 1.1//EN" "http://www.w3.org/Graphics/SVG/1.1/DTD/svg11.dtd">
<svg version="1.1" xmlns="http://www.w3.org/2000/svg" xmlns:xlink="http://www.w3.org/1999/xlink" preserveAspectRatio="xMidYMid meet" viewBox="0 0 350 350" width="350" height="350"><defs><path d="M344 174.4C344 268.23 267.82 344.4 174 344.4C80.17 344.4 4 268.23 4 174.4C4 80.57 80.17 4.4 174 4.4C267.82 4.4 344 80.57 344 174.4Z" id="epRWY83v"></path><path d="M98.64 252.65L255.35 252.65L255.35 102.16L98.64 102.16L98.64 252.65" id="e1LjLCoq9o"></path><path d="M249.51 259.82C249.51 288.16 226.53 311.15 198.18 311.15C194.15 311.15 161.95 311.15 157.93 311.15C129.58 311.15 106.59 288.16 106.59 259.82C106.59 259.45 106.59 256.55 106.59 256.19C106.59 227.84 129.58 204.86 157.93 204.86C161.95 204.86 194.15 204.86 198.18 204.86C226.53 204.86 249.51 227.84 249.51 256.19C249.51 256.43 249.51 257.64 249.51 259.82" id="m1hUXl3vWq"></path><path d="M249.54 259.82C249.54 288.17 226.56 311.15 198.21 311.15C194.18 311.15 161.98 311.15 157.95 311.15C129.6 311.15 106.62 288.17 106.62 259.82C106.62 259.45 106.62 256.55 106.62 256.19C106.62 227.84 129.6 204.86 157.95 204.86C161.98 204.86 194.18 204.86 198.21 204.86C226.56 204.86 249.54 227.84 249.54 256.19C249.54 256.43 249.54 257.64 249.54 259.82" id="bSs8xcWrk"></path><path d="M249.54 259.82C249.54 288.17 226.56 311.15 198.21 311.15C194.18 311.15 161.98 311.15 157.95 311.15C129.6 311.15 106.62 288.17 106.62 259.82C106.62 259.45 106.62 256.55 106.62 256.19C106.62 227.84 129.6 204.86 157.95 204.86C161.98 204.86 194.18 204.86 198.21 204.86C226.56 204.86 249.54 227.84 249.54 256.19C249.54 256.43 249.54 257.64 249.54 259.82" id="b2vjppIWI4"></path><path d="M198.21 204.86L178.1 204.86L178.1 311.15C190.17 311.15 196.87 311.15 198.21 311.15C226.56 311.15 249.54 288.17 249.54 259.82C249.54 259.45 249.54 256.55 249.54 256.19C249.54 227.84 226.56 204.86 198.21 204.86" id="dgaGGTrt3"></path><path d="M201.89 215.44C201.9 231.36 178.08 239.35 178.08 239.35C178.08 239.35 154.23 231.39 154.22 215.48C154.2 199.56 164.45 195.34 178.03 195.34C191.62 195.32 201.88 199.52 201.89 215.44" id="abzaurEAf"></path><path d="M198.38 211.2C198.38 222.43 189.28 231.52 178.05 231.52C178.05 231.52 178.05 231.52 178.05 231.52C166.83 231.52 157.73 222.43 157.73 211.2C157.73 208.03 157.73 182.65 157.73 179.47C157.73 168.25 166.83 159.15 178.05 159.15C178.05 159.15 178.05 159.15 178.05 159.15C189.28 159.15 198.38 168.25 198.38 179.47C198.38 181.59 198.38 192.16 198.38 211.2" id="b7tdbPkzl"></path><path d="M178.05 159.15C166.83 159.15 157.73 168.25 157.73 179.47C157.73 181.19 157.73 194.97 157.73 196.69C163.59 198.75 170.56 199.95 178.05 199.95C185.54 199.95 192.52 198.75 198.38 196.69C198.38 194.97 198.38 181.19 198.38 179.47C198.38 168.25 189.28 159.15 178.05 159.15" id="a6fV4541ND"></path><path d="M247.14 119C247.14 160.67 213.36 194.45 171.69 194.45C130.01 194.45 96.23 160.67 96.23 119C96.23 77.32 130.01 43.54 171.69 43.54C213.36 43.54 247.14 77.32 247.14 119" id="az3gOFkSu"></path><path d="M205.44 136.53C205.44 157.12 188.75 173.81 168.17 173.81C147.58 173.81 130.89 157.12 130.89 136.53C135.86 136.53 160.71 136.53 205.44 136.53" id="a29CQQ7iSn"></path><path d="M131.49 110.73C126.82 110.73 123.04 114.52 123.04 119.19C123.04 123.85 126.82 127.64 131.49 127.64C136.16 127.64 139.95 123.85 139.95 119.19C139.95 114.52 136.16 110.73 131.49 110.73" id="b2XqOw6mAf"></path><path d="M200.46 110.73C195.79 110.73 192.01 114.52 192.01 119.19C192.01 123.85 195.79 127.64 200.46 127.64C205.13 127.64 208.92 123.85 208.92 119.19C208.92 114.52 205.13 110.73 200.46 110.73" id="c4W1CKSjN"></path><path d="M189.45 79.89C189.45 79.89 194.62 92.37 217.12 104.49C226.11 109.33 255.35 104.49 255.35 104.49C255.35 59.56 218.93 23.14 174 23.14C129.07 23.14 92.65 59.56 92.65 104.49C92.65 104.49 120.9 106.11 150.5 97.65C167.32 92.85 189.45 79.89 189.45 79.89" id="cytPKqrrn"></path><path d="M226.43 246.45L255.35 252.65L255.35 104.49L226.43 104.49L226.43 246.45" id="f33LcrPFUo"></path></defs><g><g><g><use xlink:href="#epRWY83v" opacity="1" fill="#2c3e50" fill-opacity="1"></use></g><g><use xlink:href="#e1LjLCoq9o" opacity="1" fill="#6c121e" fill-opacity="1"></use><g><use xlink:href="#e1LjLCoq9o" opacity="1" fill-opacity="0" stroke="#000000" stroke-width="1" stroke-opacity="0"></use></g></g><g><use xlink:href="#m1hUXl3vWq" opacity="1" fill="#181919" fill-opacity="1"></use><g><use xlink:href="#m1hUXl3vWq" opacity="1" fill-opacity="0" stroke="#000000" stroke-width="1" stroke-opacity="0"></use></g></g><g><use xlink:href="#bSs8xcWrk" opacity="1" fill="#484a4d" fill-opacity="1"></use><g><use xlink:href="#bSs8xcWrk" opacity="1" fill-opacity="0" stroke="#000000" stroke-width="1" stroke-opacity="0"></use></g></g><g><use xlink:href="#b2vjppIWI4" opacity="1" fill="#d7cb60" fill-opacity="1"></use><g><use xlink:href="#b2vjppIWI4" opacity="1" fill-opacity="0" stroke="#000000" stroke-width="1" stroke-opacity="0"></use></g></g><g><use xlink:href="#dgaGGTrt3" opacity="1" fill="#c2b96a" fill-opacity="1"></use><g><use xlink:href="#dgaGGTrt3" opacity="1" fill-opacity="0" stroke="#000000" stroke-width="1" stroke-opacity="0"></use></g></g><g><use xlink:href="#abzaurEAf" opacity="1" fill="#e49b74" fill-opacity="1"></use><g><use xlink:href="#abzaurEAf" opacity="1" fill-opacity="0" stroke="#000000" stroke-width="1" stroke-opacity="0"></use></g></g><g><use xlink:href="#b7tdbPkzl" opacity="1" fill="#f8a57c" fill-opacity="1"></use><g><use xlink:href="#b7tdbPkzl" opacity="1" fill-opacity="0" stroke="#000000" stroke-width="1" stroke-opacity="0"></use></g></g><g><use xlink:href="#a6fV4541ND" opacity="1" fill="#e49b74" fill-opacity="1"></use><g><use xlink:href="#a6fV4541ND" opacity="1" fill-opacity="0" stroke="#000000" stroke-width="1" stroke-opacity="0"></use></g></g><g><use xlink:href="#az3gOFkSu" opacity="1" fill="#f8a57c" fill-opacity="1"></use><g><use xlink:href="#az3gOFkSu" opacity="1" fill-opacity="0" stroke="#000000" stroke-width="1" stroke-opacity="0"></use></g></g><g><use xlink:href="#a29CQQ7iSn" opacity="1" fill="#ffffff" fill-opacity="1"></use><g><use xlink:href="#a29CQQ7iSn" opacity="1" fill-opacity="0" stroke="#000000" stroke-width="1" stroke-opacity="0"></use></g></g><g><use xlink:href="#b2XqOw6mAf" opacity="1" fill="#1d1e1f" fill-opacity="1"></use><g><use xlink:href="#b2XqOw6mAf" opacity="1" fill-opacity="0" stroke="#000000" stroke-width="1" stroke-opacity="0"></use></g></g><g><use xlink:href="#c4W1CKSjN" opacity="1" fill="#1d1e1f" fill-opacity="1"></use><g><use xlink:href="#c4W1CKSjN" opacity="1" fill-opacity="0" stroke="#000000" stroke-width="1" stroke-opacity="0"></use></g></g><g><use xlink:href="#cytPKqrrn" opacity="1" fill="#911827" fill-opacity="1"></use><g><use xlink:href="#cytPKqrrn" opacity="1" fill-opacity="0" stroke="#000000" stroke-width="1" stroke-opacity="0"></use></g></g><g><use xlink:href="#f33LcrPFUo" opacity="1" fill="#911827" fill-opacity="1"></use><g><use xlink:href="#f33LcrPFUo" opacity="1" fill-opacity="0" stroke="#000000" stroke-width="1" stroke-opacity="0"></use></g></g></g></g></svg>