<?xml version="1.0" encoding="UTF-8" standalone="no"?>
<!DOCTYPE svg PUBLIC "-//W3C//DTD SVG 1.1//EN" "http://www.w3.org/Graphics/SVG/1.1/DTD/svg11.dtd">
<svg version="1.1" xmlns="http://www.w3.org/2000/svg" xmlns:xlink="http://www.w3.org/1999/xlink" preserveAspectRatio="xMidYMid meet" viewBox="0 0 350 350" width="350" height="350"><defs><path d="M344 174.4C344 268.23 267.82 344.4 174 344.4C80.17 344.4 4 268.23 4 174.4C4 80.57 80.17 4.4 174 4.4C267.82 4.4 344 80.57 344 174.4Z" id="epRWY83v"></path><path d="M96.26 205.68L252.97 205.68L252.97 109.41L96.26 109.41L96.26 205.68" id="b2VOM65uro"></path><path d="M247.13 267.07C247.13 295.42 224.15 318.4 195.8 318.4C191.77 318.4 159.57 318.4 155.55 318.4C127.2 318.4 104.21 295.42 104.21 267.07C104.21 266.71 104.21 263.81 104.21 263.44C104.21 235.09 127.2 212.11 155.55 212.11C159.57 212.11 191.77 212.11 195.8 212.11C224.15 212.11 247.13 235.09 247.13 263.44C247.13 263.68 247.13 264.89 247.13 267.07" id="c3m5ELOQmc"></path><path d="M199.51 222.7C199.52 238.62 175.7 246.6 175.7 246.6C175.7 246.6 151.85 238.65 151.84 222.73C151.82 206.81 162.06 202.6 175.65 202.59C189.24 202.58 199.5 206.78 199.51 222.7" id="c1bVZwOQ9O"></path><path d="M196 218.46C196 229.68 186.9 238.78 175.67 238.78C175.67 238.78 175.67 238.78 175.67 238.78C164.45 238.78 155.35 229.68 155.35 218.46C155.35 215.28 155.35 189.9 155.35 186.73C155.35 175.51 164.45 166.41 175.67 166.41C175.67 166.41 175.67 166.41 175.67 166.41C186.9 166.41 196 175.51 196 186.73C196 188.85 196 199.42 196 218.46" id="dIqMdHp7J"></path><path d="M175.67 166.41C164.45 166.41 155.35 175.51 155.35 186.73C155.35 188.45 155.35 202.22 155.35 203.94C161.21 206.01 168.18 207.21 175.67 207.21C183.16 207.21 190.14 206.01 196 203.94C196 202.22 196 188.45 196 186.73C196 175.51 186.9 166.41 175.67 166.41" id="c1Kg9hTsQp"></path><path d="M244.76 126.25C244.76 167.93 210.98 201.71 169.31 201.71C127.63 201.71 93.85 167.93 93.85 126.25C93.85 84.58 127.63 50.8 169.31 50.8C210.98 50.8 244.76 84.58 244.76 126.25" id="b7JoVbJLHg"></path><path d="M203.06 143.79C203.06 164.37 186.37 181.06 165.79 181.06C145.2 181.06 128.51 164.37 128.51 143.79C133.48 143.79 158.33 143.79 203.06 143.79" id="e41rVCpoiI"></path><path d="M129.11 117.99C124.44 117.99 120.66 121.77 120.66 126.44C120.66 131.11 124.44 134.9 129.11 134.9C133.78 134.9 137.57 131.11 137.57 126.44C137.57 121.77 133.78 117.99 129.11 117.99" id="aK34xLTeI"></path><path d="M198.08 117.99C193.41 117.99 189.63 121.77 189.63 126.44C189.63 131.11 193.41 134.9 198.08 134.9C202.75 134.9 206.54 131.11 206.54 126.44C206.54 121.77 202.75 117.99 198.08 117.99" id="e2v8uYoVkl"></path><path d="M175.69 235.71L175.7 246.6L152.91 240.6L175.69 235.71Z" id="ah1Sfyakm"></path><path d="M155.35 205.68L142.02 213.92L148.69 256.81L175.69 235.71L155.35 205.68" id="aJDQWxu1"></path><path d="M175.69 235.71L175.67 246.6L198.46 240.6L175.69 235.71Z" id="aZMWcv4UU"></path><path d="M196.02 205.68L209.35 213.92L202.68 256.81L175.69 235.71L196.02 205.68" id="f4iC6tgMjg"></path><path d="M179.36 83.43L181.41 111.75C224.35 111.75 248.2 111.75 252.97 111.75C252.97 66.82 216.55 30.4 171.62 30.4C126.69 30.4 90.27 66.82 90.27 111.75C95.99 111.75 124.62 111.75 176.16 111.75L179.36 83.43" id="bBnw66JkA"></path><path d="M224.05 199.48L252.97 205.68L252.97 111.75L224.05 111.75L224.05 199.48" id="b2ArS91ciR"></path></defs><g><g><g><use xlink:href="#epRWY83v" opacity="1" fill="#2c3e50" fill-opacity="1"></use></g><g><use xlink:href="#b2VOM65uro" opacity="1" fill="#180e0d" fill-opacity="1"></use><g><use xlink:href="#b2VOM65uro" opacity="1" fill-opacity="0" stroke="#000000" stroke-width="1" stroke-opacity="0"></use></g></g><g><use xlink:href="#c3m5ELOQmc" opacity="1" fill="#181919" fill-opacity="1"></use><g><use xlink:href="#c3m5ELOQmc" opacity="1" fill-opacity="0" stroke="#000000" stroke-width="1" stroke-opacity="0"></use></g></g><g><use xlink:href="#c1bVZwOQ9O" opacity="1" fill="#e49b74" fill-opacity="1"></use><g><use xlink:href="#c1bVZwOQ9O" opacity="1" fill-opacity="0" stroke="#000000" stroke-width="1" stroke-opacity="0"></use></g></g><g><use xlink:href="#dIqMdHp7J" opacity="1" fill="#f8a57c" fill-opacity="1"></use><g><use xlink:href="#dIqMdHp7J" opacity="1" fill-opacity="0" stroke="#000000" stroke-width="1" stroke-opacity="0"></use></g></g><g><use xlink:href="#c1Kg9hTsQp" opacity="1" fill="#e49b74" fill-opacity="1"></use><g><use xlink:href="#c1Kg9hTsQp" opacity="1" fill-opacity="0" stroke="#000000" stroke-width="1" stroke-opacity="0"></use></g></g><g><use xlink:href="#b7JoVbJLHg" opacity="1" fill="#f8a57c" fill-opacity="1"></use><g><use xlink:href="#b7JoVbJLHg" opacity="1" fill-opacity="0" stroke="#000000" stroke-width="1" stroke-opacity="0"></use></g></g><g><use xlink:href="#e41rVCpoiI" opacity="1" fill="#ffffff" fill-opacity="1"></use><g><use xlink:href="#e41rVCpoiI" opacity="1" fill-opacity="0" stroke="#000000" stroke-width="1" stroke-opacity="0"></use></g></g><g><use xlink:href="#aK34xLTeI" opacity="1" fill="#1d1e1f" fill-opacity="1"></use><g><use xlink:href="#aK34xLTeI" opacity="1" fill-opacity="0" stroke="#000000" stroke-width="1" stroke-opacity="0"></use></g></g><g><use xlink:href="#e2v8uYoVkl" opacity="1" fill="#1d1e1f" fill-opacity="1"></use><g><use xlink:href="#e2v8uYoVkl" opacity="1" fill-opacity="0" stroke="#000000" stroke-width="1" stroke-opacity="0"></use></g></g><g><use xlink:href="#ah1Sfyakm" opacity="1" fill="#c2c3c1" fill-opacity="1"></use><g><use xlink:href="#ah1Sfyakm" opacity="1" fill-opacity="0" stroke="#000000" stroke-width="1" stroke-opacity="0"></use></g></g><g><use xlink:href="#aJDQWxu1" opacity="1" fill="#f5f5f3" fill-opacity="1"></use><g><use xlink:href="#aJDQWxu1" opacity="1" fill-opacity="0" stroke="#000000" stroke-width="1" stroke-opacity="0"></use></g></g><g><use xlink:href="#aZMWcv4UU" opacity="1" fill="#999c9c" fill-opacity="1"></use><g><use xlink:href="#aZMWcv4UU" opacity="1" fill-opacity="0" stroke="#000000" stroke-width="1" stroke-opacity="0"></use></g></g><g><use xlink:href="#f4iC6tgMjg" opacity="1" fill="#ecedea" fill-opacity="1"></use><g><use xlink:href="#f4iC6tgMjg" opacity="1" fill-opacity="0" stroke="#000000" stroke-width="1" stroke-opacity="0"></use></g></g><g><use xlink:href="#bBnw66JkA" opacity="1" fill="#181919" fill-opacity="1"></use><g><use xlink:href="#bBnw66JkA" opacity="1" fill-opacity="0" stroke="#000000" stroke-width="1" stroke-opacity="0"></use></g></g><g><use xlink:href="#b2ArS91ciR" opacity="1" fill="#181919" fill-opacity="1"></use><g><use xlink:href="#b2ArS91ciR" opacity="1" fill-opacity="0" stroke="#000000" stroke-width="1" stroke-opacity="0"></use></g></g></g></g></svg>