<?xml version="1.0" encoding="UTF-8" standalone="no"?>
<!DOCTYPE svg PUBLIC "-//W3C//DTD SVG 1.1//EN" "http://www.w3.org/Graphics/SVG/1.1/DTD/svg11.dtd">
<svg version="1.1" xmlns="http://www.w3.org/2000/svg" xmlns:xlink="http://www.w3.org/1999/xlink" preserveAspectRatio="xMidYMid meet" viewBox="0 0 515 580" width="515" height="580"><defs><path d="M483.77 353.27C483.77 477.46 382.95 578.27 258.77 578.27C134.59 578.27 33.77 477.46 33.77 353.27C33.77 229.09 134.59 128.27 258.77 128.27C382.95 128.27 483.77 229.09 483.77 353.27Z" id="b8vm95CEK"></path><path d="M325.45 83.07C326.2 83.07 329.98 83.07 336.79 83.07C336.79 36.71 336.79 10.96 336.79 5.81C336.79 0.42 330.13 -2.04 326.59 2.02C282.05 53.16 325.68 66.86 325.45 83.07Z" id="e3zwkaHXh1"></path><path d="M413.78 5.81C413.78 10.96 413.78 36.71 413.78 83.07C420.59 83.07 424.37 83.07 425.12 83.07C425.12 83.07 468.52 53.16 423.98 2.02C420.44 -2.04 413.78 0.42 413.78 5.81Z" id="cxB1mRXyg"></path><path d="M426.21 365.84C426.21 394.08 411.31 423.54 384.04 427.02C384.04 434.49 384.04 494.23 384.04 501.7C384.04 507.39 379.43 512 373.74 512C372.3 512 360.79 512 359.35 512C353.66 512 349.04 507.39 349.04 501.7C349.04 496.75 349.04 472.01 349.04 427.48L174.31 427.48C174.31 472.01 174.31 496.75 174.31 501.7C174.31 507.39 169.69 512 164 512C162.57 512 151.06 512 149.62 512C143.94 512 139.32 507.39 139.32 501.7C139.32 488.94 139.32 425.12 139.32 310.26C221.57 310.26 267.26 310.26 276.4 310.26C284.42 310.26 291.97 308.29 298.62 304.8C313.91 296.79 324.33 280.76 324.33 262.28C324.33 245.5 324.33 111.2 324.33 94.42C324.33 66.48 346.48 43.11 374.41 42.65C402.95 42.18 426.21 65.15 426.21 93.57C426.21 148.02 426.21 338.61 426.21 365.84Z" id="h94SwxMrt5"></path><path d="M360.39 94.42C360.39 111.2 360.39 245.5 360.39 262.28C360.39 280.76 349.96 296.78 334.68 304.8C328.03 308.29 320.48 310.26 312.46 310.26C308.85 310.26 280 310.26 276.4 310.26C284.42 310.26 291.98 308.29 298.62 304.8C313.91 296.79 324.33 280.76 324.33 262.28C324.33 245.5 324.33 111.2 324.33 94.42C324.33 66.48 346.48 43.11 374.41 42.65C381.11 42.54 387.5 43.72 393.39 45.96C374.03 53.39 360.39 72.49 360.39 94.42Z" id="a2Ddt6sVb"></path><path d="M103.5 310.26C90.95 310.26 79.32 316.88 72.91 327.69C66.59 338.35 66.35 358.22 71.79 369.13C73.51 372.58 78.34 372.84 80.33 369.55C85.27 361.39 95.88 348.12 115.43 341.18C123.09 338.46 167.7 337.22 175.83 337.22C175.83 335.43 175.83 326.44 175.83 310.26C137.25 310.26 113.15 310.26 103.5 310.26Z" id="fdXyZTdQa"></path><path d="M387.61 123.33C390.19 118.86 386.96 113.27 381.79 113.27C380.49 113.27 370.08 113.27 368.78 113.27C363.61 113.27 360.38 118.86 362.96 123.33C363.61 124.46 368.82 133.49 369.47 134.61C372.05 139.09 378.51 139.09 381.1 134.61C382.4 132.36 386.96 124.46 387.61 123.33Z" id="b4xLIBkYq"></path><path d="M389.13 149.07C389.13 153.85 386.7 158.08 383.01 160.57C383.01 156.92 383.01 127.66 383.01 124.01C383.01 119.74 379.55 116.28 375.28 116.28C371.02 116.28 367.56 119.74 367.56 124.01C367.56 127.66 367.56 156.92 367.56 160.57C363.87 158.08 361.44 153.85 361.44 149.07C361.44 144.8 357.98 141.35 353.71 141.35C337.77 141.35 347.2 178.39 375.28 178.39C403.34 178.39 412.87 141.35 396.86 141.35C392.59 141.35 389.13 144.8 389.13 149.07Z" id="a175aMskyZ"></path><path d="M324.33 104.56C320.07 104.56 316.61 101.1 316.61 96.84C316.61 92.57 320.07 89.11 324.33 89.11C326.64 89.11 345.12 89.11 347.43 89.11C351.7 89.11 355.16 92.57 355.16 96.84C355.16 101.1 351.7 104.56 347.43 104.56C342.81 104.56 326.64 104.56 324.33 104.56Z" id="b5LRca5u89"></path><path d="M403.12 104.56C398.85 104.56 395.39 101.1 395.39 96.84C395.39 92.57 398.85 89.11 403.12 89.11C405.43 89.11 423.9 89.11 426.21 89.11C430.48 89.11 433.94 92.57 433.94 96.84C433.94 101.1 430.48 104.56 426.21 104.56C421.59 104.56 405.43 104.56 403.12 104.56Z" id="bivlcJJqr"></path><path d="M298.62 355.6C298.62 375.41 282.56 391.47 262.75 391.47C257.49 391.47 215.44 391.47 210.18 391.47C190.37 391.47 174.31 375.41 174.31 355.6C174.31 352.58 174.31 337.46 174.31 310.26C235.56 310.26 269.59 310.26 276.4 310.26C284.42 310.26 291.97 308.29 298.62 304.8C298.62 314.96 298.62 350.52 298.62 355.6Z" id="a1ohLzUAlj"></path><path d="M384.04 472.34C384.04 489.95 384.04 499.74 384.04 501.7C384.04 507.39 379.43 512 373.74 512C372.3 512 360.79 512 359.35 512C353.66 512 349.04 507.39 349.04 501.7C349.04 499.74 349.04 489.95 349.04 472.34L384.04 472.34Z" id="b3N5tbt9NV"></path><path d="M210.18 391.47C190.37 391.47 174.31 375.41 174.31 355.6C174.31 352.58 174.31 337.46 174.31 310.26L210.36 310.26C210.36 337.46 210.36 352.58 210.36 355.6C210.36 375.41 226.42 391.47 246.23 391.47C239.02 391.47 213.78 391.47 210.18 391.47Z" id="j4X1Hxsa5w"></path><path d="M174.32 310.26L174.32 427.48L174.31 427.48C174.31 472.01 174.31 496.75 174.31 501.7C174.31 507.39 169.69 512 164.01 512C162.57 512 151.06 512 149.62 512C143.94 512 139.32 507.39 139.32 501.7C139.32 488.94 139.32 425.12 139.32 310.26L174.32 310.26Z" id="b2EawmjH9j"></path><path d="M139.32 472.34L174.31 472.34C174.31 489.95 174.31 499.74 174.31 501.7C174.31 507.39 169.69 512 164.01 512C162.57 512 151.06 512 149.62 512C143.94 512 139.32 507.39 139.32 501.7C139.32 497.78 139.32 488 139.32 472.34Z" id="b1Zch4pO2l"></path></defs><g><g><g><use xlink:href="#b8vm95CEK" opacity="1" fill="#2c3e50" fill-opacity="1"></use></g><g><use xlink:href="#e3zwkaHXh1" opacity="1" fill="#d8cecc" fill-opacity="1"></use><g><use xlink:href="#e3zwkaHXh1" opacity="1" fill-opacity="0" stroke="#000000" stroke-width="1" stroke-opacity="0"></use></g></g><g><use xlink:href="#cxB1mRXyg" opacity="1" fill="#d8cecc" fill-opacity="1"></use><g><use xlink:href="#cxB1mRXyg" opacity="1" fill-opacity="0" stroke="#000000" stroke-width="1" stroke-opacity="0"></use></g></g><g><use xlink:href="#h94SwxMrt5" opacity="1" fill="#ebe0da" fill-opacity="1"></use><g><use xlink:href="#h94SwxMrt5" opacity="1" fill-opacity="0" stroke="#000000" stroke-width="1" stroke-opacity="0"></use></g></g><g><use xlink:href="#a2Ddt6sVb" opacity="1" fill="#d8cecc" fill-opacity="1"></use><g><use xlink:href="#a2Ddt6sVb" opacity="1" fill-opacity="0" stroke="#000000" stroke-width="1" stroke-opacity="0"></use></g></g><g><use xlink:href="#fdXyZTdQa" opacity="1" fill="#ebe0da" fill-opacity="1"></use><g><use xlink:href="#fdXyZTdQa" opacity="1" fill-opacity="0" stroke="#000000" stroke-width="1" stroke-opacity="0"></use></g></g><g><use xlink:href="#b4xLIBkYq" opacity="1" fill="#766d78" fill-opacity="1"></use><g><use xlink:href="#b4xLIBkYq" opacity="1" fill-opacity="0" stroke="#000000" stroke-width="1" stroke-opacity="0"></use></g></g><g><use xlink:href="#a175aMskyZ" opacity="1" fill="#766d78" fill-opacity="1"></use><g><use xlink:href="#a175aMskyZ" opacity="1" fill-opacity="0" stroke="#000000" stroke-width="1" stroke-opacity="0"></use></g></g><g><use xlink:href="#b5LRca5u89" opacity="1" fill="#766d78" fill-opacity="1"></use><g><use xlink:href="#b5LRca5u89" opacity="1" fill-opacity="0" stroke="#000000" stroke-width="1" stroke-opacity="0"></use></g></g><g><use xlink:href="#bivlcJJqr" opacity="1" fill="#766d78" fill-opacity="1"></use><g><use xlink:href="#bivlcJJqr" opacity="1" fill-opacity="0" stroke="#000000" stroke-width="1" stroke-opacity="0"></use></g></g><g><use xlink:href="#a1ohLzUAlj" opacity="1" fill="#24d3b5" fill-opacity="1"></use><g><use xlink:href="#a1ohLzUAlj" opacity="1" fill-opacity="0" stroke="#000000" stroke-width="1" stroke-opacity="0"></use></g></g><g><use xlink:href="#b3N5tbt9NV" opacity="1" fill="#a49ca7" fill-opacity="1"></use><g><use xlink:href="#b3N5tbt9NV" opacity="1" fill-opacity="0" stroke="#000000" stroke-width="1" stroke-opacity="0"></use></g></g><g><use xlink:href="#j4X1Hxsa5w" opacity="1" fill="#20b7a1" fill-opacity="1"></use><g><use xlink:href="#j4X1Hxsa5w" opacity="1" fill-opacity="0" stroke="#000000" stroke-width="1" stroke-opacity="0"></use></g></g><g><use xlink:href="#b2EawmjH9j" opacity="1" fill="#d8cecc" fill-opacity="1"></use><g><use xlink:href="#b2EawmjH9j" opacity="1" fill-opacity="0" stroke="#000000" stroke-width="1" stroke-opacity="0"></use></g></g><g><use xlink:href="#b1Zch4pO2l" opacity="1" fill="#a49ca7" fill-opacity="1"></use><g><use xlink:href="#b1Zch4pO2l" opacity="1" fill-opacity="0" stroke="#000000" stroke-width="1" stroke-opacity="0"></use></g></g></g></g></svg>